<svg width="63" height="20" fill="none" xmlns="http://www.w3.org/2000/svg" style="fill:white">
  <path d="M30.003 0C19.077.6 10.351 9.257 9.926 20h10.15c0-5.62 4.345-10.248 9.927-10.839V0ZM13.768 5.992A21.445 21.445 0 0 0 0 0v9.161c3.694.392 6.846 2.55 8.556 5.596a23.132 23.132 0 0 1 5.212-8.765ZM46.204 5.992A21.446 21.446 0 0 0 32.436 0v9.161c3.694.392 6.846 2.55 8.555 5.595a23.131 23.131 0 0 1 5.213-8.764ZM62.439 0C51.514.6 42.787 9.257 42.362 20h10.15c0-5.62 4.346-10.248 9.927-10.839V.001Z"/>
</svg>
